<?xml version="1.0" encoding="utf-8"?>
<!-- Generator: Adobe Illustrator 19.1.0, SVG Export Plug-In . SVG Version: 6.00 Build 0)  -->
<svg version="1.1" id="Layer_1" xmlns="http://www.w3.org/2000/svg" xmlns:xlink="http://www.w3.org/1999/xlink" x="0px" y="0px"
	 viewBox="0 0 100 100" style="enable-background:new 0 0 100 100;" xml:space="preserve">
<style type="text/css">
	.st0{fill:#333333;}
	.st1{fill:#6D6D6D;}
	.st2{enable-background:new    ;}
	.st3{fill:none;stroke:#ED1C24;stroke-miterlimit:10;}
</style>
<g>
	<path class="st0" d="M82.4,11.2l-65.5,66c0,0-2.6,2.8,0,5.8c1.7,1.9,6,2.2,7.8-0.5c1.9-2.7,1.1-3.3,2.8-4.9s3.8-1.7,5-2.8
		c1.2-1.2,2.2-4.4,4.1-6.2c1.9-1.8,3.4-1.4,5.2-3.1c1.8-1.8,4.4-4.6,4.4-4.6l4.3,4l23.8-23.7C74.3,41.1,85.5,30.8,82.4,11.2z"/>
	<path class="st1" d="M73.8,38.1l-25.1,25l0,0l2,1.9l23.8-23.7c0,0,11.3-11,8-30C82,28.6,73.8,38.1,73.8,38.1z"/>
</g>
<g>
	<g class="st2">
		<path class="st0" d="M38.2,35.6h-3.8L29.5,30h-3v5.6h-3.2V18.8c2.7,0,5.3,0,8,0c4,0,6,2.7,6,5.6c0,2.3-1.1,4.6-4.2,5.3l5.1,5.7
			V35.6z M26.5,21.8v5.4h4.8c2,0,2.9-1.3,2.9-2.7c0-1.3-0.9-2.7-2.9-2.7H26.5z"/>
	</g>
</g>
<g>
	<g class="st2">
		<path class="st0" d="M79.3,70.6l-5.5,7.3h-0.6l-5.4-7.3v12.2h-3.2V66h3.6l5.3,7.2l5.3-7.2h3.6v16.8h-3.2V70.6z"/>
	</g>
</g>
<path class="st3" d="M87.4,88.9"/>
<path class="st3" d="M11.4,6.3"/>
</svg>
